<?xml version="1.0" encoding="UTF-8"?>
<svg id="Layer_3" xmlns="http://www.w3.org/2000/svg" version="1.1" viewBox="0 0 600 600">
  <!-- Generator: Adobe Illustrator 29.5.1, SVG Export Plug-In . SVG Version: 2.1.0 Build 141)  -->
  <defs>
    <style>
      .st0 {
        display: none;
        fill: #ed2024;
      }

      .st1, .st2 {
        fill: #fff;
      }

      .st2 {
        stroke: #231f20;
        stroke-miterlimit: 10;
      }
    </style>
  </defs>
  <rect class="st0" x="-7.1" width="622.29" height="597.09"/>
  <g id="Layer_2">
    <polygon class="st1" points="184.32 371.55 184.32 336.27 195.54 336.27 205.68 360.55 215.96 336.27 227.04 336.27 227.04 371.2 219.39 371.12 219.39 347.7 209.32 371.55 202.25 371.55 192.39 347.77 192.32 371.55 184.32 371.55"/>
    <path class="st1" d="M245.25,344.36c-8.05,0-14.57,6.34-14.57,14.17s6.52,14.17,14.57,14.17,14.57-6.34,14.57-14.17-6.52-14.17-14.57-14.17ZM245.24,366.75c-9.51,0-9.66-15.96.01-15.96s9.86,15.96-.01,15.96Z"/>
    <path class="st1" d="M276.14,344.36c-8.05,0-14.57,6.34-14.57,14.17s6.52,14.17,14.57,14.17,14.57-6.34,14.57-14.17-6.52-14.17-14.57-14.17ZM276.14,366.77c-9.23,0-9.92-16.02,0-16.02,9.09,0,9.9,16.02,0,16.02Z"/>
    <path class="st1" d="M292.52,371.48v-25.71h7.48v4.36s10.34-12.07,16.55.04c0,0,10.48-12.25,16.93.11v21.21h-7.5l-.23-16.64s-3.29-6.64-8.45,0l.12,16.64h-7.93l-.11-16.64s-3.61-6.14-9.12,0l.06,16.64h-7.8Z"/>
    <path class="st2" d="M364.51,371.99"/>
    <path class="st1" d="M365.8,366.37c-3.21,2.36-3.11-.54-3.11-.54l-.16-12.16c0-8.84-10.98-8.92-10.98-8.92-13.61.08-13.93,8.28-13.93,8.28v1.88l7.45-.05s-.16-4.34,5.2-4.66,4.66,3.48,4.66,3.48c-.54,3.91-7.34,3-7.34,3-10.93-.05-10.77,7.88-10.77,7.88,0,9.11,9.05,7.78,9.05,7.78,5.62-.1,9.11-4.35,9.11-4.35,1.18,4.12,5.79,4.42,5.79,4.42,0,0,5.52.25,6.38-3.13s-1.34-2.89-1.34-2.89ZM345.54,366.85c-2.38-1.99-1.7-4.57.36-5.82,2.22-1.34,4.53-1.44,7.86-1.29,3.79.18.65,5.29-2.96,7.5-2.1,1.29-3.95.69-5.25-.4Z"/>
    <path class="st1" d="M377.21,352.02v10.93s1.13,5.68,8.73.91c0,0,1.31-.47,1.98.14,1.11,1.01.98,4.31-.27,5.38,0,0-15.87,9.29-17.72-2.93l-.12-14.43h-5.31v-6.43h5.25v-7.02l7.71-1.39-.21,8.46h9.96l-.05,6.32-9.96.05Z"/>
    <path class="st1" d="M412.3,363.56c-.65.04-11.94,8.02-13.87-2.91h18.64s.93-15.75-12.43-15.91c0,0-14.86-.73-14.43,13.82.42,14.15,14.43,13.82,14.43,13.82,0,0,6.26.16,11.24-5.51,2.02-2.3-2.34-3.39-3.59-3.32ZM397.4,356.48c-.07-3.61,2.01-6.71,6.17-6.71,3.33,0,6.38,2.68,6.15,6.71"/>
    <g>
      <path class="st1" d="M359.07,328.24h-108.43s-4.46.36-4.5-3.21v-69.43s.18-2.21,2.14-3.64c2.28-1.66,63-46.71,63-46.71,0,0,2.29-1.77,4.5,0l61.96,46.25s1.51,1.19,2.01,3.15l.09,59.03s5.79,6.93,10.07-.21v-60.43s.41-4.91-3.43-8.14l-66.43-49.07s-6.21-4.5-13.71,0l-65.82,48.21s-4.25,3-4.46,8.79v75.5s0,10.71,10.71,10.42h112.07s10.71-4.5.21-10.5Z"/>
      <path class="st1" d="M368.03,302.53l-.05-10.55s-15.7-16.98-17.52-24.45c-3.15-12.94-13.03-12.14-13.03-12.14h-71.89c-4.82-.21-5.04,3.87-5.04,3.87l-.11,50.25c0,2.52,7.89,2.25,7.89,2.25,0,0,1.86,14.06,15.14,14,12.62-.06,15.71-13.86,15.71-13.86l26.54-.3s3.96,14.04,16.93,13.82c12.75-.21,14.39-13.5,14.39-13.5l10.57-.16c5.88-3.48.46-9.21.46-9.21ZM290.14,312.05c-.57,1.61-1.23,2.67-2.7,3.73-.04.02-.16.11-.21.14-.04.03-.2.12-.25.15-.3.19-.7.38-1.03.5-.08.03-.23.09-.31.11-.23.06-.35.11-.57.15-.08.02-.28.05-.36.07-.37.06-.46.08-.84.11,0,0-.15,0-.16,0-.01,0-.19,0-.2,0-.06,0-.12,0-.18,0-.13,0-.04,0-.17-.02-.03,0-.4-.03-.42-.03-.34-.03-.64-.08-.98-.16-.45-.13-1.01-.32-1.4-.55-.46-.24-.47-.26-.87-.52-.03-.02-.17-.12-.58-.46-.42-.4-.36-.35-.71-.73-.1-.11-.69-.95-.75-1.08-.81-1.46-1.12-3.54-.62-5.25.96-3.27,3.67-5.04,6.68-5.04,3.47,0,6.8,2.54,6.93,7.07.01.39-.15,1.47-.29,1.82ZM324.11,265.22c0-.55.45-1,1-1h10.54c3.02,0,5.77,3.29,7.21,5.2.94,1.24,5.89,12.26,4.82,12.26h-22.57c-.55,0-1-.45-1-1v-15.46ZM348.05,313.56c-1.27,1.98-3.16,3.28-5.64,3.42-.36.02-1.25-.06-1.48-.1-.09-.01-.86-.2-.95-.21-.03,0-.82-.31-.86-.32-2.31-1.26-2.96-2.07-3.75-4.5-.87-2.7.63-6.19,3.11-7.68,2.49-1.49,6.15-1.21,8.25.75,2.54,2.36,2.86,6.25,1.32,8.64Z"/>
    </g>
  </g>
</svg>