<?xml version="1.0" standalone="no"?>
<svg xmlns:xlink="http://www.w3.org/1999/xlink" id="wave" style="transform:rotate(0deg); transition: 0.3s" viewBox="0 0 1440 450" version="1.1" xmlns="http://www.w3.org/2000/svg"><defs><linearGradient id="sw-gradient-0" x1="0" x2="0" y1="1" y2="0"><stop stop-color="rgba(222, 81, 20, 1)" offset="0%"/><stop stop-color="rgba(222, 81, 20, 1)" offset="100%"/></linearGradient></defs><path style="transform:translate(0, 0px); opacity:1" fill="url(#sw-gradient-0)" d="M0,135L80,180C160,225,320,315,480,300C640,285,800,165,960,142.5C1120,120,1280,195,1440,195C1600,195,1760,120,1920,75C2080,30,2240,15,2400,67.5C2560,120,2720,240,2880,300C3040,360,3200,360,3360,330C3520,300,3680,240,3840,195C4000,150,4160,120,4320,120C4480,120,4640,150,4800,135C4960,120,5120,60,5280,45C5440,30,5600,60,5760,105C5920,150,6080,210,6240,225C6400,240,6560,210,6720,225C6880,240,7040,300,7200,270C7360,240,7520,120,7680,127.5C7840,135,8000,270,8160,307.5C8320,345,8480,285,8640,247.5C8800,210,8960,195,9120,210C9280,225,9440,270,9600,247.5C9760,225,9920,135,10080,150C10240,165,10400,285,10560,345C10720,405,10880,405,11040,345C11200,285,11360,165,11440,105L11520,45L11520,450L11440,450C11360,450,11200,450,11040,450C10880,450,10720,450,10560,450C10400,450,10240,450,10080,450C9920,450,9760,450,9600,450C9440,450,9280,450,9120,450C8960,450,8800,450,8640,450C8480,450,8320,450,8160,450C8000,450,7840,450,7680,450C7520,450,7360,450,7200,450C7040,450,6880,450,6720,450C6560,450,6400,450,6240,450C6080,450,5920,450,5760,450C5600,450,5440,450,5280,450C5120,450,4960,450,4800,450C4640,450,4480,450,4320,450C4160,450,4000,450,3840,450C3680,450,3520,450,3360,450C3200,450,3040,450,2880,450C2720,450,2560,450,2400,450C2240,450,2080,450,1920,450C1760,450,1600,450,1440,450C1280,450,1120,450,960,450C800,450,640,450,480,450C320,450,160,450,80,450L0,450Z"/></svg>